<?xml version="1.0" encoding="UTF-8"?>
<svg xmlns="http://www.w3.org/2000/svg" xmlns:xlink="http://www.w3.org/1999/xlink" viewBox="0 0 142.55 20">
  <defs>
    <linearGradient id="Sfumatura_senza_nome_5" data-name="Sfumatura senza nome 5" x1="71.28" y1="0" x2="71.28" y2="20" gradientUnits="userSpaceOnUse">
      <stop offset="0" stop-color="#fff"/>
      <stop offset="1" stop-color="#b1b2b4"/>
    </linearGradient>
  </defs>
  <g style="fill: none; isolation: isolate;">
    <g id="bg">
      <path d="m137.55,20h-69.55V0h69.55c2.76,0,5,2.24,5,5v10c0,2.76-2.24,5-5,5Z" style="fill: #b1b2b4;"/>
      <path d="m68,20H4.97C2.22,20,0,17.78,0,15.03V4.97C0,2.22,2.22,0,4.97,0h63.03v20Z" style="fill: #555;"/>
    </g>
    <g id="shadow">
      <path d="m137.55,0H4.97C2.22,0,0,2.22,0,4.97v10.06c0,2.74,2.22,4.97,4.97,4.97h132.59c2.76,0,5-2.24,5-5V5c0-2.76-2.24-5-5-5Z" style="fill: url(#Sfumatura_senza_nome_5); mix-blend-mode: multiply; opacity: .7;"/>
    </g>
    <g id="border">
      <g style="fill: none; mix-blend-mode: overlay; opacity: .5;">
        <path d="m137.55.75c2.34,0,4.25,1.91,4.25,4.25v10c0,2.34-1.91,4.25-4.25,4.25H4.97c-2.33,0-4.22-1.89-4.22-4.22V4.97C.75,2.64,2.64.75,4.97.75h132.59M137.55,0H4.97C2.22,0,0,2.22,0,4.97v10.06C0,17.78,2.22,20,4.97,20h132.59c2.76,0,5-2.24,5-5V5C142.55,2.24,140.32,0,137.55,0h0Z" style="fill: #fff;"/>
      </g>
    </g>
    <g id="label">
      <g>
        <path d="m79.31,14.01c-1.88,0-3.25-1.1-3.25-3.77v-1.55c0-2.66,1.37-3.77,3.25-3.77s3.24,1.1,3.24,3.77v1.55c0,2.66-1.35,3.77-3.24,3.77Zm2.13-5.31c0-2.02-.82-2.78-2.13-2.78s-2.15.77-2.15,2.78v1.55c0,2.02.83,2.78,2.15,2.78s2.13-.77,2.13-2.78v-1.55Z" style="fill: #fff;"/>
        <path d="m86.79,14.01c-.37,0-.94-.05-1.4-.13v2.17c0,.12-.1.23-.23.23h-.61c-.12,0-.22-.1-.22-.23V7.8c0-.16.04-.23.25-.28.64-.16,1.48-.28,2.21-.28,1.79,0,2.61,1.16,2.61,2.96v.86c0,1.88-.86,2.94-2.61,2.94Zm1.56-3.8c0-1.26-.37-2.08-1.56-2.08-.5,0-1.07.06-1.4.12v4.75c.4.07,1.02.12,1.4.12,1.18,0,1.56-.77,1.56-2.05v-.86Z" style="fill: #fff;"/>
        <path d="m95.92,10.96h-4.02v.17c0,1.43.56,1.96,1.67,1.96.7,0,1.58-.05,2.13-.13h.06c.1,0,.19.05.19.17v.41c0,.16-.05.24-.24.28-.68.13-1.34.2-2.15.2-1.38,0-2.72-.65-2.72-2.88v-1.08c0-1.71.95-2.81,2.66-2.81s2.64,1.1,2.64,2.81v.65c0,.16-.08.26-.23.26Zm-.84-.91c0-1.35-.52-1.88-1.57-1.88s-1.61.59-1.61,1.88v.11h3.18v-.11Z" style="fill: #fff;"/>
        <path d="m100.55,8.17c-.82,0-1.21.02-1.67.12v5.4c0,.12-.08.24-.22.24h-.62c-.12,0-.22-.11-.22-.24v-5.83c0-.13.08-.22.22-.28.68-.3,1.51-.34,2.51-.34.16,0,.25.01.25.18v.55c0,.13-.02.19-.25.19Z" style="fill: #fff;"/>
        <path d="m106.6,13.73c-.64.16-1.48.28-2.21.28-1.79,0-2.61-1.16-2.61-2.96v-.84c0-1.8.82-2.96,2.61-2.96.72,0,1.57.12,2.21.28.22.05.25.11.25.28v5.66c0,.16-.04.23-.25.28Zm-.8-5.48c-.32-.06-.9-.12-1.4-.12-1.19,0-1.56.8-1.56,2.08v.84c0,1.26.37,2.07,1.56,2.07.5,0,1.07-.06,1.4-.12v-4.75Z" style="fill: #fff;"/>
        <path d="m111.65,13.94c-.23.04-.72.07-1.15.07-1.13,0-1.78-.37-1.78-1.67v-6.19c0-.12.11-.2.24-.23l.59-.1h.02c.12,0,.2.11.2.23v1.27h1.87c.13,0,.23.08.23.22v.41c0,.12-.1.22-.23.22h-1.87v4.17c0,.7.23.82.89.82h.97c.17,0,.25.05.25.17v.41c0,.11-.06.18-.24.2Z" style="fill: #fff;"/>
        <path d="m114.22,6.27h-.61c-.13,0-.24-.11-.24-.24v-.96c0-.13.11-.24.24-.24h.61c.13,0,.24.11.24.24v.96c0,.13-.11.24-.24.24Zm-.02,7.65h-.58c-.13,0-.24-.11-.24-.24v-6.12c0-.13.11-.24.24-.24h.58c.13,0,.24.11.24.24v6.12c0,.13-.11.24-.24.24Z" style="fill: #fff;"/>
        <path d="m118.9,14.01c-1.76,0-2.66-1.16-2.66-2.93v-.91c0-1.76.9-2.93,2.66-2.93s2.67,1.16,2.67,2.93v.91c0,1.76-.91,2.93-2.67,2.93Zm1.62-3.84c0-1.22-.49-2-1.62-2s-1.61.77-1.61,2v.91c0,1.22.48,2,1.61,2s1.62-.77,1.62-2v-.91Z" style="fill: #fff;"/>
        <path d="m128.06,13.93h-.62c-.13,0-.22-.11-.22-.24v-4.28c0-.9-.23-1.25-1.04-1.25h-.85c-.82,0-1.04.35-1.04,1.25v4.28c0,.13-.08.24-.22.24h-.62c-.13,0-.22-.11-.22-.24v-4.28c0-1.85,1.28-2.16,2.1-2.16h.85c.82,0,2.1.31,2.1,2.16v4.28c0,.13-.08.24-.22.24Z" style="fill: #fff;"/>
        <path d="m132.09,14.01c-.44,0-1.31-.04-1.9-.18-.16-.04-.25-.11-.25-.24v-.42c0-.11.1-.18.22-.18h.05c.58.07,1.45.13,1.88.13.78,0,1.19-.2,1.19-.85,0-.36-.22-.59-.9-1l-1.21-.72c-.73-.44-1.22-.96-1.22-1.71,0-1.25.94-1.6,2.17-1.6.67,0,1.31.06,1.87.16.16.02.23.11.23.24v.4c0,.14-.08.2-.2.2h-.04c-.42-.04-1.19-.1-1.86-.1s-1.12.08-1.12.7c0,.36.28.59.83.91l1.19.71c1,.59,1.32,1.1,1.32,1.81,0,1.22-.9,1.74-2.24,1.74Z" style="fill: #fff;"/>
      </g>
    </g>
    <g id="logo">
      <g>
        <path d="m18.79,5.15c-.29-.17-.64-.3-1.04-.36-.4-.07-.81-.07-1.21-.01-.4.06-.8.17-1.17.32-.37.16-.72.36-1.01.6-.3.24-.55.52-.74.84-.19.31-.29.63-.31.93-.02.31.04.6.18.87.14.27.35.51.63.7.28.19.63.34,1.04.42.41.08.85.09,1.28.04.43-.05.86-.17,1.25-.34.4-.17.76-.39,1.07-.66.31-.26.56-.57.73-.9.17-.33.25-.66.24-.97,0-.31-.1-.59-.26-.85-.16-.25-.39-.47-.68-.64Z" style="fill: #fff;"/>
        <path d="m20.85,6.13c-.28-.43-.68-.8-1.17-1.08-.49-.28-1.07-.49-1.74-.6-.66-.11-1.34-.11-2.01-.01-.67.09-1.32.27-1.94.53-.62.26-1.19.6-1.69,1-.51.4-.94.88-1.26,1.4-.33.53-.51,1.07-.57,1.59-.06.53.03,1.04.23,1.51.21.47.55.9,1.02,1.24.47.35,1.06.62,1.76.78.71.16,1.46.19,2.2.1.75-.09,1.49-.29,2.18-.59.69-.3,1.32-.69,1.85-1.16.53-.46.95-1,1.24-1.58.28-.58.4-1.15.38-1.68-.02-.53-.19-1.02-.47-1.45Zm-.64,2.29c-.23.46-.57.87-.98,1.23-.42.36-.91.67-1.45.9-.54.23-1.12.39-1.71.46-.58.07-1.17.05-1.73-.07-.55-.12-1.02-.33-1.4-.59-.37-.27-.65-.6-.83-.96-.17-.36-.25-.76-.21-1.18.03-.41.18-.84.43-1.26.25-.42.59-.8,1-1.12.4-.32.86-.59,1.35-.8.49-.21,1.02-.35,1.55-.43.54-.07,1.08-.07,1.61.01.53.09,1,.25,1.39.48.39.23.7.52.92.86.22.34.35.73.36,1.15.02.42-.08.87-.31,1.32Z" style="fill: #fff;"/>
        <path d="m22.26,6.48c-.41-.61-.98-1.13-1.69-1.54-.69-.4-1.52-.69-2.45-.83-.92-.15-1.87-.14-2.8-.01-.92.13-1.84.38-2.69.74-.86.36-1.66.83-2.37,1.39-.72.57-1.34,1.23-1.81,1.97-.48.76-.77,1.53-.88,2.28-.11.77-.02,1.51.24,2.2.27.7.73,1.34,1.37,1.86.65.54,1.49.96,2.49,1.21,1.02.26,2.1.32,3.18.2,1.09-.11,2.17-.41,3.18-.85,1-.44,1.92-1.02,2.69-1.72.76-.69,1.37-1.48,1.77-2.35.39-.85.55-1.68.49-2.46-.05-.76-.31-1.47-.72-2.09Zm-.55,3.66c-.34.72-.86,1.38-1.5,1.95-.65.58-1.42,1.06-2.26,1.43-.84.37-1.75.61-2.67.71-.91.1-1.82.06-2.68-.15-.85-.2-1.56-.55-2.12-.99-.55-.43-.95-.96-1.2-1.54-.24-.57-.32-1.2-.24-1.84.08-.63.31-1.29.72-1.93.4-.63.92-1.2,1.53-1.68.6-.48,1.3-.88,2.03-1.19.73-.31,1.52-.53,2.31-.64.8-.11,1.61-.11,2.4.02.8.13,1.5.38,2.09.72.6.35,1.08.79,1.42,1.31.35.53.56,1.12.59,1.77.04.65-.1,1.35-.44,2.06Z" style="fill: #fff;"/>
        <path d="m29.67,6.23c-.43-.04-1.39-.06-2-.06-1.43,0-2.18.54-2.18,1.91v5.57c0,.11.09.21.2.21h.52c.11,0,.2-.09.2-.21v-3.35h3.14c.11,0,.2-.09.2-.2v-.39c0-.11-.09-.2-.2-.2h-3.14v-1.42c0-.78.17-1.06,1.26-1.06h1.98c.07,0,.11-.05.11-.12v-.51c0-.06-.04-.13-.1-.14Z" style="fill: #fff;"/>
        <path d="m31.98,6.25h-.56c-.11,0-.18.09-.18.19v7.21c0,.11.08.2.18.2h.56c.11,0,.18-.1.18-.2v-7.21c0-.11-.08-.19-.18-.19Z" style="fill: #fff;"/>
        <path d="m41.4,6.24h-.54c-.11,0-.19.09-.19.19v4.69c0,1.38-.28,2.01-1.43,2.01-.17,0-.72-.03-.94-.09v-6.62c0-.11-.07-.18-.18-.18h-.55c-.11,0-.19.09-.19.19v6.61c-.23.06-.77.09-.94.09-1.16,0-1.43-.62-1.43-2.01v-4.69c0-.1-.09-.19-.19-.19h-.54c-.11,0-.19.09-.19.19v4.69c0,1.78.61,2.8,2.17,2.8.53,0,1.01-.05,1.6-.26.58.2,1.08.26,1.61.26,1.56,0,2.17-1.01,2.17-2.8v-4.69c0-.1-.09-.19-.19-.19Z" style="fill: #fff;"/>
        <path d="m45.99,6.17h-.59c-1.47,0-2.2.55-2.2,2.12v5.36c0,.1.08.21.18.21h.56c.11,0,.18-.1.18-.21v-3.03h3.13v3.03c0,.11.08.21.18.21h.56c.1,0,.18-.1.18-.21v-5.36c0-1.57-.74-2.12-2.2-2.12Zm1.27,3.62h-3.13v-1.5c0-1.06.34-1.3,1.27-1.3h.59c.93,0,1.27.24,1.27,1.3v1.5Z" style="fill: #fff;"/>
        <path d="m53.09,10.52c.93-.25,1.61-.92,1.61-2.07v-.07c0-1.66-1.25-2.2-2.87-2.2-.59,0-1.36.03-1.8.08-.18.02-.25.08-.25.22v7.17c0,.11.08.2.18.2h.55c.11,0,.18-.1.18-.2v-3.01c.54.02.79.03,1.13.03h.27l1.83,3.05c.08.13.14.13.27.13h.66c.08,0,.13-.06.13-.13,0-.03-.01-.06-.03-.09l-1.86-3.11Zm-1.26-.65c-.24,0-.68-.01-1.13-.02v-2.81c.25-.03.81-.03,1.13-.03,1.28,0,1.95.34,1.95,1.36v.07c0,1.11-.69,1.42-1.95,1.42Z" style="fill: #fff;"/>
        <path d="m58.38,7.01h1.98c.07,0,.11-.05.11-.12v-.51c0-.06-.04-.13-.1-.14-.43-.04-1.39-.06-2-.06-1.43,0-2.18.54-2.18,1.91v3.94c0,1.36.75,1.91,2.18,1.91.6,0,1.61-.01,2-.05.06-.01.1-.08.1-.14v-.52c0-.07-.04-.12-.11-.12h-1.98c-1.09,0-1.26-.29-1.26-1.07v-1.72h3.14c.11,0,.2-.09.2-.2v-.39c0-.11-.09-.2-.2-.2h-3.14v-1.42c0-.78.17-1.07,1.26-1.07Z" style="fill: #fff;"/>
      </g>
    </g>
  </g>
</svg>
